<?xml version="1.0" standalone="no"?>
<!DOCTYPE svg PUBLIC "-//W3C//DTD SVG 20010904//EN"
 "http://www.w3.org/TR/2001/REC-SVG-20010904/DTD/svg10.dtd">
<svg version="1.0" xmlns="http://www.w3.org/2000/svg"
 width="512.000000pt" height="512.000000pt" viewBox="0 0 512.000000 512.000000"
 preserveAspectRatio="xMidYMid meet">

<g transform="translate(0.000000,512.000000) scale(0.100000,-0.100000)"
fill="currentColor" stroke="currentColor">
<path d="M2816 4419 c-366 -34 -730 -184 -1009 -414 -38 -31 -77 -71 -88 -88
-27 -45 -25 -115 4 -157 38 -57 71 -75 137 -75 55 1 62 4 117 48 213 172 438
284 678 337 353 76 713 29 1036 -136 412 -211 697 -578 805 -1040 26 -110 28
-135 29 -329 0 -184 -3 -223 -23 -313 -107 -478 -391 -851 -811 -1066 -322
-165 -684 -212 -1035 -136 -241 53 -466 164 -680 337 -55 45 -62 48 -116 48
-66 0 -99 -18 -137 -75 -29 -42 -31 -112 -3 -157 43 -71 267 -230 447 -318
588 -289 1295 -245 1838 112 436 287 723 722 822 1247 25 129 25 503 0 632
-141 743 -668 1310 -1390 1495 -177 45 -438 65 -621 48z"/>
<path d="M2830 3638 c-33 -17 -51 -35 -67 -68 -23 -44 -23 -47 -23 -496 0
-291 4 -463 10 -481 6 -15 178 -196 383 -401 396 -396 404 -403 480 -387 41 9
93 48 112 85 17 34 20 97 4 137 -5 15 -158 177 -340 358 l-329 330 0 408 c0
452 0 453 -64 502 -50 38 -108 43 -166 13z"/>
<path d="M360 3448 c-66 -34 -93 -79 -88 -149 5 -65 32 -109 82 -133 30 -14
107 -16 716 -16 582 0 685 2 710 15 62 32 99 115 81 183 -13 46 -65 99 -112
112 -20 6 -290 10 -689 10 l-656 0 -44 -22z"/>
<path d="M575 2706 c-67 -29 -105 -106 -91 -181 9 -47 59 -102 104 -115 25 -8
257 -10 714 -8 665 3 677 3 704 24 53 39 69 71 69 134 0 63 -16 95 -69 134
-27 21 -38 21 -714 23 -556 2 -693 0 -717 -11z"/>
<path d="M769 1947 c-49 -32 -83 -105 -74 -158 9 -53 64 -115 113 -129 23 -6
280 -10 692 -10 l656 0 44 23 c66 33 93 78 88 148 -5 65 -32 109 -82 133 -30
14 -108 16 -719 16 l-684 0 -34 -23z"/>
</g>
</svg>
